<svg version="1.1" id="Layer_1" xmlns="http://www.w3.org/2000/svg" xmlns:xlink="http://www.w3.org/1999/xlink" x="0px" y="0px"
	 width="100%" viewBox="0 0 1620 2160" enable-background="new 0 0 1620 2160" xml:space="preserve">
<path fill="#000000" opacity="1.000000" stroke="none" 
	d="
M1013.000000,2161.000000 
	C675.333313,2161.000000 338.166656,2161.000000 1.000000,2161.000000 
	C1.000000,1441.000000 1.000000,721.000000 1.000000,1.000000 
	C541.000000,1.000000 1081.000000,1.000000 1621.000000,1.000000 
	C1621.000000,721.000000 1621.000000,1441.000000 1621.000000,2161.000000 
	C1418.500000,2161.000000 1216.000000,2161.000000 1013.000000,2161.000000 
M966.655090,1125.140503 
	C966.500488,1125.786987 966.283081,1126.425415 966.200317,1127.080933 
	C961.386719,1165.197998 956.660095,1203.326294 951.757324,1241.431763 
	C947.640625,1273.428467 943.313538,1305.398071 939.095093,1337.381714 
	C938.389343,1342.732544 937.855408,1343.266235 932.810059,1341.355957 
	C921.607788,1337.114746 910.507141,1332.606079 899.345886,1328.255493 
	C861.524414,1313.512817 823.693542,1298.794067 785.868225,1284.061157 
	C752.374512,1271.015381 718.891235,1257.942993 685.388916,1244.919312 
	C658.097778,1234.310181 630.770020,1223.794922 603.486023,1213.167358 
	C571.385986,1200.663940 539.328003,1188.052734 507.221771,1175.565430 
	C501.051910,1173.165771 500.518402,1172.445435 502.258728,1165.997070 
	C507.203033,1147.677124 512.205811,1129.372803 517.045959,1111.025391 
	C517.711365,1108.503418 518.160095,1105.674194 517.729370,1103.154785 
	C515.350098,1089.237671 508.204529,1078.791504 493.829712,1075.787354 
	C483.774536,1073.686035 471.459229,1075.869385 467.430206,1087.909668 
	C462.312744,1103.202759 456.287201,1118.247192 452.137360,1133.795044 
	C446.612976,1154.492798 442.123993,1175.494263 437.975525,1196.520264 
	C435.888550,1207.097656 442.174774,1216.120728 452.194275,1219.934814 
	C472.565369,1227.689209 492.923309,1235.478760 513.263428,1243.314087 
	C549.133972,1257.131958 584.978271,1271.018066 620.850281,1284.831909 
	C651.595886,1296.671753 682.361572,1308.459473 713.124451,1320.254395 
	C737.519836,1329.607666 761.928284,1338.926758 786.323914,1348.279297 
	C810.714600,1357.630005 835.112000,1366.963745 859.477173,1376.380615 
	C876.861328,1383.099243 894.164124,1390.028931 911.563782,1396.706421 
	C928.806702,1403.323730 946.214233,1409.519531 963.380615,1416.326172 
	C975.164429,1420.998535 986.570312,1411.801147 987.982788,1400.993286 
	C988.435425,1397.530029 988.899292,1394.052856 989.650330,1390.646484 
	C994.630554,1368.058350 999.464111,1345.464478 1001.299988,1322.323730 
	C1002.401917,1308.434204 1003.777466,1294.547119 1005.640320,1280.741333 
	C1009.176453,1254.534790 1013.175842,1228.390869 1016.937561,1202.214478 
	C1022.071594,1166.488770 1027.123169,1130.751343 1032.284180,1095.029663 
	C1037.779297,1056.996216 1043.482788,1018.992676 1048.870605,980.944214 
	C1054.279785,942.745422 1059.443359,904.511719 1064.642212,866.283508 
	C1065.930298,856.811035 1064.930908,847.755310 1056.985474,841.217834 
	C1047.506470,833.418640 1036.108276,830.987183 1024.561157,833.799377 
	C1017.650024,835.482544 1009.537048,837.890320 1006.365173,845.680908 
	C1003.644714,852.362915 1001.883789,859.468323 1000.112549,866.490906 
	C999.185242,870.167847 999.197327,874.075745 998.700989,877.868286 
	C995.506897,902.272888 992.248962,926.669312 989.090332,951.078491 
	C985.248535,980.767151 981.499512,1010.467834 977.681152,1040.159546 
	C974.075684,1068.196533 970.432373,1096.228516 966.655090,1125.140503 
M1073.144653,684.657043 
	C1074.712524,680.283020 1076.857178,676.023254 1077.749512,671.515564 
	C1081.947998,650.308594 1085.786987,629.030579 1089.789917,607.784668 
	C1090.989624,601.417542 1092.976685,595.114319 1093.378784,588.705017 
	C1093.787354,582.192444 1093.990845,575.133118 1091.913818,569.133911 
	C1089.331421,561.676025 1082.691650,558.236755 1074.556641,555.970703 
	C1031.111450,543.869019 987.880432,530.996338 944.598633,518.310791 
	C892.050720,502.909454 839.465881,487.629211 787.017578,471.894867 
	C762.169678,464.440613 737.536621,456.247925 712.926514,448.029724 
	C690.984802,440.702606 669.271057,432.689911 647.296509,425.466980 
	C643.738770,424.297546 638.637878,424.380341 635.489075,426.122803 
	C628.841980,429.801117 624.214600,436.089600 622.282532,443.517303 
	C618.303101,458.816162 614.966003,474.280823 611.228821,489.644257 
	C602.297485,526.360779 593.240234,563.046631 584.320557,599.765930 
	C571.712280,651.669800 559.669617,703.718323 546.337341,755.434814 
	C542.046570,772.078979 552.803528,787.565063 566.519836,792.958801 
	C571.472656,794.906372 576.579590,796.497620 581.696045,797.975159 
	C583.696777,798.552979 586.002380,798.833496 588.022339,798.458496 
	C598.159607,796.576538 604.533020,790.523682 607.120605,780.497131 
	C618.350220,736.982849 629.622375,693.479370 640.828308,649.958923 
	C652.741882,603.690125 664.587463,557.403748 676.491882,511.132599 
	C678.084412,504.942749 678.666931,504.648651 684.792114,506.408173 
	C742.865662,523.090637 800.931763,539.798523 859.007629,556.472656 
	C909.561584,570.987061 960.118469,585.491028 1010.698853,599.912903 
	C1014.310669,600.942749 1015.998108,602.259094 1015.195984,606.498413 
	C1012.071716,623.009155 1009.231506,639.575134 1006.429993,656.144958 
	C1005.127625,663.847595 1004.008057,671.588562 1003.089722,679.345886 
	C1002.538086,684.005249 1004.428162,687.860962 1008.459106,690.391907 
	C1011.534851,692.323059 1014.588013,694.477722 1017.950134,695.731445 
	C1029.712158,700.117188 1042.092041,700.790955 1054.357544,699.591980 
	C1062.908813,698.755920 1070.450439,694.983765 1073.144653,684.657043 
z"/>
<path fill="#2A1824" opacity="1.000000" stroke="none" 
	d="
M966.730408,1124.701660 
	C970.432373,1096.228516 974.075684,1068.196533 977.681152,1040.159546 
	C981.499512,1010.467834 985.248535,980.767151 989.090332,951.078491 
	C992.248962,926.669312 995.506897,902.272888 998.700989,877.868286 
	C999.197327,874.075745 999.185242,870.167847 1000.112549,866.490906 
	C1001.883789,859.468323 1003.644714,852.362915 1006.365173,845.680908 
	C1009.537048,837.890320 1017.650024,835.482544 1024.561157,833.799377 
	C1036.108276,830.987183 1047.506470,833.418640 1056.985474,841.217834 
	C1064.930908,847.755310 1065.930298,856.811035 1064.642212,866.283508 
	C1059.443359,904.511719 1054.279785,942.745422 1048.870605,980.944214 
	C1043.482788,1018.992676 1037.779297,1056.996216 1032.284180,1095.029663 
	C1027.123169,1130.751343 1022.071594,1166.488770 1016.937561,1202.214478 
	C1013.175842,1228.390869 1009.176453,1254.534790 1005.640320,1280.741333 
	C1003.777466,1294.547119 1002.401917,1308.434204 1001.299988,1322.323730 
	C999.464111,1345.464478 994.630554,1368.058350 989.650330,1390.646484 
	C988.899292,1394.052856 988.435425,1397.530029 987.982788,1400.993286 
	C986.570312,1411.801147 975.164429,1420.998535 963.380615,1416.326172 
	C946.214233,1409.519531 928.806702,1403.323730 911.563782,1396.706421 
	C894.164124,1390.028931 876.861328,1383.099243 859.477173,1376.380615 
	C835.112000,1366.963745 810.714600,1357.630005 786.323914,1348.279297 
	C761.928284,1338.926758 737.519836,1329.607666 713.124451,1320.254395 
	C682.361572,1308.459473 651.595886,1296.671753 620.850281,1284.831909 
	C584.978271,1271.018066 549.133972,1257.131958 513.263428,1243.314087 
	C492.923309,1235.478760 472.565369,1227.689209 452.194275,1219.934814 
	C442.174774,1216.120728 435.888550,1207.097656 437.975525,1196.520264 
	C442.123993,1175.494263 446.612976,1154.492798 452.137360,1133.795044 
	C456.287201,1118.247192 462.312744,1103.202759 467.430206,1087.909668 
	C471.459229,1075.869385 483.774536,1073.686035 493.829712,1075.787354 
	C508.204529,1078.791504 515.350098,1089.237671 517.729370,1103.154785 
	C518.160095,1105.674194 517.711365,1108.503418 517.045959,1111.025391 
	C512.205811,1129.372803 507.203033,1147.677124 502.258728,1165.997070 
	C500.518402,1172.445435 501.051910,1173.165771 507.221771,1175.565430 
	C539.328003,1188.052734 571.385986,1200.663940 603.486023,1213.167358 
	C630.770020,1223.794922 658.097778,1234.310181 685.388916,1244.919312 
	C718.891235,1257.942993 752.374512,1271.015381 785.868225,1284.061157 
	C823.693542,1298.794067 861.524414,1313.512817 899.345886,1328.255493 
	C910.507141,1332.606079 921.607788,1337.114746 932.810059,1341.355957 
	C937.855408,1343.266235 938.389343,1342.732544 939.095093,1337.381714 
	C943.313538,1305.398071 947.640625,1273.428467 951.757324,1241.431763 
	C956.660095,1203.326294 961.386719,1165.197998 966.200317,1127.080933 
	C966.283081,1126.425415 966.500488,1125.786987 966.730408,1124.701660 
z"/>
<path fill="#2A1824" opacity="1.000000" stroke="none" 
	d="
M1072.980225,684.999878 
	C1070.450439,694.983765 1062.908813,698.755920 1054.357544,699.591980 
	C1042.092041,700.790955 1029.712158,700.117188 1017.950134,695.731445 
	C1014.588013,694.477722 1011.534851,692.323059 1008.459106,690.391907 
	C1004.428162,687.860962 1002.538086,684.005249 1003.089722,679.345886 
	C1004.008057,671.588562 1005.127625,663.847595 1006.429993,656.144958 
	C1009.231506,639.575134 1012.071716,623.009155 1015.195984,606.498413 
	C1015.998108,602.259094 1014.310669,600.942749 1010.698853,599.912903 
	C960.118469,585.491028 909.561584,570.987061 859.007629,556.472656 
	C800.931763,539.798523 742.865662,523.090637 684.792114,506.408173 
	C678.666931,504.648651 678.084412,504.942749 676.491882,511.132599 
	C664.587463,557.403748 652.741882,603.690125 640.828308,649.958923 
	C629.622375,693.479370 618.350220,736.982849 607.120605,780.497131 
	C604.533020,790.523682 598.159607,796.576538 588.022339,798.458496 
	C586.002380,798.833496 583.696777,798.552979 581.696045,797.975159 
	C576.579590,796.497620 571.472656,794.906372 566.519836,792.958801 
	C552.803528,787.565063 542.046570,772.078979 546.337341,755.434814 
	C559.669617,703.718323 571.712280,651.669800 584.320557,599.765930 
	C593.240234,563.046631 602.297485,526.360779 611.228821,489.644257 
	C614.966003,474.280823 618.303101,458.816162 622.282532,443.517303 
	C624.214600,436.089600 628.841980,429.801117 635.489075,426.122803 
	C638.637878,424.380341 643.738770,424.297546 647.296509,425.466980 
	C669.271057,432.689911 690.984802,440.702606 712.926514,448.029724 
	C737.536621,456.247925 762.169678,464.440613 787.017578,471.894867 
	C839.465881,487.629211 892.050720,502.909454 944.598633,518.310791 
	C987.880432,530.996338 1031.111450,543.869019 1074.556641,555.970703 
	C1082.691650,558.236755 1089.331421,561.676025 1091.913818,569.133911 
	C1093.990845,575.133118 1093.787354,582.192444 1093.378784,588.705017 
	C1092.976685,595.114319 1090.989624,601.417542 1089.789917,607.784668 
	C1085.786987,629.030579 1081.947998,650.308594 1077.749512,671.515564 
	C1076.857178,676.023254 1074.712524,680.283020 1072.980225,684.999878 
z"/>
</svg>