<svg version="1.1" id="Layer_1" xmlns="http://www.w3.org/2000/svg" xmlns:xlink="http://www.w3.org/1999/xlink" x="0px" y="0px"
	 width="100%" viewBox="0 0 1620 2160" enable-background="new 0 0 1620 2160" xml:space="preserve">
<path fill="#000000" opacity="1.000000" stroke="none" 
	d="
M596.000000,2161.000000 
	C397.333344,2161.000000 199.166672,2161.000000 1.000000,2161.000000 
	C1.000000,1441.000000 1.000000,721.000000 1.000000,1.000000 
	C541.000000,1.000000 1081.000000,1.000000 1621.000000,1.000000 
	C1621.000000,721.000000 1621.000000,1441.000000 1621.000000,2161.000000 
	C1279.500000,2161.000000 938.000000,2161.000000 596.000000,2161.000000 
M870.050537,1077.372192 
	C871.868774,1080.251221 873.683594,1083.132324 875.505798,1086.008789 
	C885.294922,1101.460815 894.664062,1117.200806 904.996033,1132.281006 
	C915.099670,1147.027954 925.620850,1161.570679 937.029114,1175.314575 
	C945.357361,1185.347900 955.237976,1194.136719 964.801453,1203.079346 
	C968.741272,1206.763306 977.353882,1206.554688 980.343201,1199.214722 
	C981.863342,1195.482178 983.650452,1191.848511 984.994751,1188.056152 
	C989.419739,1175.572998 986.322449,1162.992676 984.652527,1150.616943 
	C982.812561,1136.980957 979.496277,1123.549683 977.031494,1109.991211 
	C973.575317,1090.979248 970.081421,1071.969360 967.027954,1052.890503 
	C963.761414,1032.479980 960.931091,1011.998474 958.038818,991.529907 
	C957.328064,986.499756 956.863525,981.405579 956.732605,976.329346 
	C956.519714,968.075073 956.675232,959.811218 956.675232,950.489990 
	C957.296387,951.603699 957.586365,952.007874 957.762878,952.456543 
	C965.081177,971.067383 971.833374,989.924622 979.821838,1008.242798 
	C993.711426,1040.092896 1007.819275,1071.872314 1022.875854,1103.181030 
	C1034.030884,1126.376709 1046.558838,1148.931763 1059.010620,1171.476562 
	C1066.194824,1184.484009 1074.219482,1197.049683 1082.340698,1209.504639 
	C1084.950806,1213.507568 1088.892944,1216.744263 1092.628296,1219.846802 
	C1093.696777,1220.734131 1097.180298,1220.663086 1097.842285,1219.766235 
	C1101.449707,1214.879150 1103.690186,1209.097290 1101.501099,1203.170898 
	C1098.378662,1194.716919 1094.865112,1186.323853 1090.619873,1178.385498 
	C1081.384155,1161.114990 1070.962158,1144.460571 1062.144653,1126.989136 
	C1046.669434,1096.325684 1031.820435,1065.339233 1017.142395,1034.283325 
	C1010.248901,1019.698120 1003.905212,1004.812439 998.126099,989.750610 
	C989.346558,966.868591 981.246155,943.725159 972.921448,920.669617 
	C970.404541,913.698853 966.421082,908.378906 958.391907,908.052185 
	C948.666931,907.656555 941.990417,911.370178 939.255615,918.416199 
	C934.930908,929.558777 932.536499,941.225952 932.157654,953.078369 
	C931.777100,964.980957 932.615051,976.926208 933.036926,988.848511 
	C933.164246,992.447205 933.557800,996.049438 934.048340,999.619995 
	C935.644592,1011.239258 937.202271,1022.866821 939.040955,1034.448975 
	C940.797180,1045.511475 942.853027,1056.527222 944.838623,1067.552490 
	C946.851990,1078.731812 948.933472,1089.898804 950.998230,1101.068726 
	C953.829529,1116.386108 956.724976,1131.692017 959.486145,1147.021973 
	C960.578857,1153.088867 961.384705,1159.207642 962.321106,1165.302734 
	C953.327026,1155.776001 944.856750,1146.413940 937.812561,1136.079834 
	C923.038147,1114.404907 908.854675,1092.320435 894.727234,1070.213257 
	C881.214722,1049.068481 868.292480,1027.544556 854.655273,1006.482361 
	C850.404053,999.916626 844.618408,994.279907 835.615234,995.069885 
	C833.258118,995.276794 831.012756,996.658142 828.650696,996.928772 
	C824.297974,997.427368 821.405396,999.623657 821.104004,1003.876038 
	C820.692505,1009.682556 820.644226,1015.566711 821.080139,1021.369568 
	C821.802917,1030.992188 822.719360,1040.623413 824.129089,1050.166016 
	C826.146667,1063.822998 828.777954,1077.388306 830.968567,1091.021484 
	C833.111511,1104.358276 834.912537,1117.750244 837.077209,1131.083252 
	C839.941223,1148.723755 843.125549,1166.312256 845.959106,1183.957397 
	C848.152954,1197.618896 849.853821,1211.359985 852.073975,1225.016846 
	C854.888916,1242.332886 857.739868,1259.651367 861.075134,1276.871948 
	C864.025757,1292.106079 867.079407,1307.371460 871.281433,1322.286743 
	C872.959351,1328.242676 877.522705,1333.534546 881.385071,1338.667847 
	C883.554810,1341.551392 887.285400,1342.794189 890.814514,1340.566650 
	C895.384460,1337.682251 898.101868,1324.103149 895.673340,1319.055542 
	C894.145691,1315.880615 892.866211,1312.502686 892.064209,1309.077881 
	C889.592346,1298.523315 887.112183,1287.955322 885.179199,1277.293823 
	C882.829224,1264.332397 881.026184,1251.271729 878.999512,1238.251831 
	C877.247742,1226.997925 875.559998,1215.734009 873.760803,1204.487671 
	C871.552551,1190.684204 869.229675,1176.899170 867.008789,1163.097656 
	C865.199768,1151.856079 863.532837,1140.591553 861.685059,1129.356567 
	C859.523438,1116.212524 857.202271,1103.094849 855.010376,1089.955811 
	C853.378601,1080.174316 851.790894,1070.384766 850.283142,1060.583618 
	C849.367554,1054.631836 848.641296,1048.651001 847.829956,1042.683228 
	C849.688782,1044.137451 850.743835,1045.725220 851.750427,1047.342896 
	C857.822998,1057.102173 863.884460,1066.868408 870.050537,1077.372192 
M497.497711,1084.998413 
	C507.837982,1103.171021 518.097229,1121.359619 531.179749,1137.825317 
	C540.753174,1149.874756 550.988892,1161.068359 564.419495,1168.848511 
	C573.359619,1174.027344 582.350647,1174.499756 591.257996,1168.350586 
	C599.102051,1162.935425 603.249573,1155.131104 607.190308,1146.719116 
	C616.405701,1127.047485 618.424377,1106.288208 617.925476,1085.054810 
	C617.784607,1079.060059 614.594177,1077.603271 608.729187,1078.493530 
	C604.103149,1079.195679 602.994690,1082.249756 602.049622,1085.609863 
	C599.559814,1094.462158 597.317444,1103.384155 594.999512,1112.284424 
	C592.292419,1122.678955 589.040161,1132.797241 581.565063,1140.976074 
	C578.619629,1144.198853 576.092957,1145.539062 571.715515,1142.480347 
	C560.889343,1134.915405 552.360718,1125.216309 545.042297,1114.520630 
	C536.546753,1102.104736 528.286133,1089.460571 520.915588,1076.357422 
	C507.892578,1053.205444 495.580994,1029.652100 483.139984,1006.177612 
	C482.452393,1004.880188 482.627014,1002.189880 483.540161,1001.130188 
	C489.993988,993.641663 496.500916,986.165527 503.478973,979.172546 
	C509.268890,973.370178 515.280884,967.755066 517.548523,959.669922 
	C518.593750,955.943298 519.416626,951.061340 517.818604,948.034790 
	C516.557556,945.646606 511.244690,943.892761 508.074371,944.332214 
	C501.545166,945.237122 495.778595,948.058716 490.788300,953.328796 
	C483.691833,960.823120 475.248047,967.041687 467.379852,973.805298 
	C468.743530,975.140015 468.282379,974.647827 468.021881,974.065735 
	C461.360779,959.179932 454.565247,944.351562 448.119171,929.372925 
	C441.231140,913.367310 434.870819,897.133728 427.923035,881.154846 
	C420.513519,864.114075 413.261444,846.964050 404.885345,830.395264 
	C395.869720,812.561401 384.938049,812.994263 371.107056,818.481445 
	C369.775513,819.009705 368.616486,820.415405 367.781708,821.680542 
	C362.986664,828.948181 361.073822,837.259033 361.147522,845.691589 
	C361.268616,859.545654 362.245178,873.396301 363.027496,887.239014 
	C363.528107,896.096741 364.382202,904.933838 364.981598,913.786682 
	C366.026855,929.225037 367.016205,944.667114 367.993744,960.109863 
	C368.691040,971.124817 369.443542,982.138000 369.969299,993.161621 
	C370.740906,1009.339478 371.453552,1025.522217 371.951569,1041.710205 
	C372.223053,1050.534180 371.753082,1059.383301 372.109680,1068.201172 
	C372.274933,1072.287964 371.047424,1075.158081 367.939819,1077.576904 
	C354.948761,1087.688599 342.074554,1097.952148 328.995728,1107.948364 
	C323.478180,1112.165527 321.680511,1116.372681 324.079620,1122.742554 
	C325.036896,1125.284302 326.626251,1127.596558 328.002533,1129.970093 
	C332.042664,1136.937500 334.877075,1137.680908 341.507996,1132.917114 
	C352.028748,1125.359131 362.382080,1117.567871 373.000000,1109.732300 
	C373.000000,1111.164307 373.033661,1112.762695 372.994629,1114.359253 
	C372.670685,1127.618286 372.357544,1140.877563 371.992340,1154.135498 
	C371.695984,1164.894287 371.491455,1175.659424 370.938354,1186.405884 
	C370.610474,1192.775269 369.619843,1199.108154 369.043457,1205.468018 
	C368.049347,1216.436890 369.505249,1226.609741 378.684540,1234.194702 
	C381.714386,1236.698364 384.395477,1237.538574 386.432251,1233.104370 
	C387.231750,1231.363892 388.087250,1229.639893 389.048523,1227.984619 
	C393.688660,1219.995483 392.943359,1210.936157 393.866791,1202.296997 
	C395.073792,1191.004395 395.486359,1179.616821 395.957977,1168.258423 
	C396.473511,1155.841553 396.790222,1143.412842 396.964294,1130.986206 
	C397.130005,1119.156616 397.114227,1107.321289 396.945007,1095.491699 
	C396.875214,1090.615112 397.160553,1086.718384 401.875702,1083.276855 
	C407.594055,1079.103027 412.128632,1073.323242 417.258789,1068.323975 
	C426.647583,1059.174805 436.221039,1050.211670 445.478638,1040.932617 
	C451.615753,1034.781372 457.337128,1028.215332 463.324493,1021.748657 
	C474.802399,1043.064819 485.927155,1063.724976 497.497711,1084.998413 
M686.945496,998.293152 
	C688.315491,992.137573 689.647400,985.973145 691.062744,979.828003 
	C694.873962,963.279724 694.785217,946.506287 691.715576,930.049805 
	C688.446655,912.524902 681.767700,896.250122 668.758606,883.136719 
	C656.851013,871.133667 643.273560,865.084106 626.218567,869.024170 
	C618.435730,870.822144 611.216248,873.791565 606.296997,880.383362 
	C598.978210,890.190552 595.079956,901.526428 592.465881,913.981262 
	C591.833496,912.440674 591.332458,911.449097 591.010681,910.402466 
	C584.659729,889.744873 578.163208,869.130005 572.039612,848.405029 
	C565.184082,825.202759 558.443542,801.960449 552.175171,778.595398 
	C550.700256,773.097656 546.740295,769.684326 542.798462,769.464355 
	C537.335571,769.159485 531.682251,771.864563 526.167419,773.475769 
	C525.574341,773.648987 525.392700,775.132935 524.963562,775.980164 
	C522.210876,781.414062 522.641052,787.085449 524.048340,792.680603 
	C526.086182,800.782410 527.364075,809.359802 535.794434,814.060486 
	C536.837158,814.641907 537.577393,816.226501 537.939636,817.494263 
	C540.821289,827.580566 543.390381,837.758911 546.408569,847.802917 
	C554.625977,875.148254 562.801331,902.509460 571.398132,929.736572 
	C580.481934,958.505981 590.337341,987.033875 599.237854,1015.858093 
	C603.078003,1028.294189 609.428345,1039.895264 609.415710,1053.737671 
	C609.407349,1062.902832 612.857849,1072.252808 619.070312,1079.697021 
	C621.229309,1082.284180 624.545776,1085.399902 627.375916,1085.442017 
	C629.497864,1085.473755 632.494751,1081.302368 633.674622,1078.418457 
	C635.951233,1072.853882 637.218628,1066.876465 638.904724,1061.068237 
	C645.048523,1061.303955 649.803345,1058.436157 654.111877,1054.414307 
	C670.447144,1039.165649 679.155396,1019.473999 686.945496,998.293152 
M973.998840,796.452881 
	C978.404846,806.167664 982.410583,816.093506 987.376831,825.512878 
	C990.071228,830.623108 993.965576,835.308105 998.086182,839.414795 
	C1006.068970,847.370728 1013.727478,846.776855 1019.696411,842.392700 
	C1027.130615,836.932251 1034.255493,830.443848 1039.751465,823.083313 
	C1049.717041,809.736572 1057.985352,795.194763 1064.051270,779.555359 
	C1066.839966,772.365295 1070.936523,765.487732 1069.857056,757.347229 
	C1063.548096,754.312866 1058.977783,754.605835 1054.677612,760.042175 
	C1046.422119,770.479004 1039.068481,781.625977 1030.899658,792.135620 
	C1024.550781,800.303772 1017.532654,807.951599 1010.123596,816.637695 
	C1006.584656,809.857971 1003.145630,804.818848 1001.181702,799.258667 
	C987.273254,759.881653 973.637878,720.407776 960.075623,680.909851 
	C959.555054,679.393494 960.039856,676.667908 961.128662,675.614075 
	C965.598083,671.288574 970.401917,667.292908 975.230408,663.357239 
	C989.023560,652.114563 1002.890320,640.962341 1016.725464,629.771179 
	C1027.004761,621.456299 1037.469238,613.356567 1047.484863,604.735291 
	C1053.409180,599.635620 1059.438477,594.413452 1062.642700,586.877136 
	C1064.231812,583.139587 1061.764648,577.988525 1058.054565,578.179565 
	C1055.557617,578.308044 1052.954590,579.092102 1050.667358,580.158447 
	C1029.830933,589.872375 1011.334900,603.335449 992.825623,616.730713 
	C977.947510,627.498047 963.294617,638.576477 948.402771,649.619995 
	C948.256836,649.358887 947.797791,648.733704 947.532349,648.034973 
	C937.343994,621.208435 927.273193,594.336487 916.926025,567.571350 
	C914.519470,561.346191 912.318970,554.636658 905.228394,551.713013 
	C898.408020,548.900696 889.028381,554.064087 890.105042,560.291321 
	C891.063599,565.835754 892.475342,571.375549 894.380493,576.667725 
	C898.912170,589.255981 903.890137,601.682922 908.621582,614.200012 
	C915.120056,631.391968 921.622681,648.583191 927.908508,665.852966 
	C928.466797,667.386719 927.919006,669.755371 927.077942,671.295471 
	C921.976990,680.636230 916.279968,689.667908 911.521301,699.172913 
	C908.702332,704.803467 909.378845,710.869446 913.057434,716.355408 
	C915.649536,720.221069 918.919861,720.743652 922.103210,717.340210 
	C924.555176,714.718689 926.731995,711.836731 928.989563,709.037109 
	C932.301025,704.930603 935.575317,700.794250 939.067139,696.417908 
	C939.910522,697.919800 940.519592,698.702393 940.823181,699.589600 
	C947.245850,718.359802 953.591797,737.156494 960.043396,755.916748 
	C964.606445,769.185181 969.303345,782.407593 973.998840,796.452881 
M1175.026855,1131.458496 
	C1177.375610,1126.497925 1179.928955,1121.619507 1181.969238,1116.535156 
	C1182.746216,1114.598633 1183.279297,1111.359985 1182.250366,1110.202271 
	C1180.911377,1108.695801 1177.549438,1107.598633 1175.686890,1108.217529 
	C1170.880249,1109.814819 1166.033813,1111.901367 1161.902832,1114.792236 
	C1154.042725,1120.293091 1146.689575,1126.515747 1139.086792,1132.387939 
	C1135.878906,1134.865723 1133.154175,1134.933472 1129.986572,1131.629517 
	C1116.598267,1117.665649 1110.880981,1099.962646 1104.895996,1082.258789 
	C1102.427490,1074.957031 1101.497070,1068.606689 1108.762329,1063.616089 
	C1108.878662,1063.536133 1108.887085,1063.314331 1108.980591,1063.183472 
	C1119.221924,1048.842529 1126.376953,1032.945801 1131.938843,1016.351746 
	C1137.858643,998.689331 1140.948608,980.476807 1137.765259,961.933411 
	C1136.628662,955.312561 1134.150391,948.071960 1129.980591,943.013123 
	C1123.019165,934.567627 1113.342041,932.151733 1102.107300,935.223938 
	C1091.657593,938.081665 1084.299194,943.454102 1079.800293,953.474731 
	C1074.030518,966.326172 1071.750122,979.892944 1071.178589,993.661743 
	C1070.664673,1006.044128 1071.265259,1018.516968 1072.115479,1030.899048 
	C1072.920044,1042.616211 1073.896240,1054.426147 1076.199463,1065.914062 
	C1080.811157,1088.915161 1087.282715,1111.412842 1099.397095,1131.829712 
	C1104.272339,1140.046265 1109.254272,1148.064087 1116.754028,1154.448242 
	C1128.393433,1164.356445 1138.083252,1164.421509 1148.622681,1158.449951 
	C1159.507446,1152.282593 1167.672363,1142.577881 1175.026855,1131.458496 
M693.000000,856.441162 
	C694.396667,867.110901 694.917480,877.989685 697.402283,888.399719 
	C700.837524,902.791504 704.638977,917.296448 710.335327,930.893372 
	C716.449707,945.487915 723.736389,959.845886 737.187927,969.777710 
	C749.606567,978.946838 760.593140,978.684143 770.088013,971.249146 
	C780.682190,962.953369 786.376953,951.280457 791.160095,938.888611 
	C799.148804,918.191956 799.349182,897.146179 796.074524,875.635803 
	C792.566833,852.595276 785.323364,830.895996 771.830933,811.867126 
	C759.762756,794.846985 743.201233,781.441284 719.444702,788.889771 
	C709.491455,792.010437 701.853516,798.446777 697.584534,806.821655 
	C693.707703,814.427124 693.017822,823.945923 692.211182,832.739319 
	C691.523315,840.237732 692.666748,847.904236 693.000000,856.441162 
M812.492065,817.993713 
	C820.252380,833.451294 827.612000,849.127319 835.886902,864.304321 
	C843.984436,879.155823 854.196777,892.244263 868.881775,901.648376 
	C881.117493,909.483948 896.487671,904.773804 903.126709,894.679199 
	C911.643005,881.730286 917.911865,867.877441 918.832092,852.408875 
	C919.691833,837.956299 919.986938,823.314819 918.638306,808.933899 
	C917.499207,796.787109 914.203918,784.737793 910.867737,772.926514 
	C905.951599,755.521606 900.038574,738.411011 889.737000,723.242798 
	C883.884338,714.625122 873.161377,712.330505 864.755005,718.181702 
	C863.294922,719.197998 861.868896,721.923950 862.168701,723.536377 
	C864.004944,733.411316 867.603210,742.544495 875.143433,749.671753 
	C876.329956,750.793274 877.612061,752.085693 878.168152,753.556885 
	C881.243103,761.692444 884.768250,769.740417 886.894165,778.133667 
	C890.425964,792.078003 893.950745,806.147522 895.684448,820.382751 
	C896.949341,830.768066 895.714966,841.535400 894.874390,852.074951 
	C894.195374,860.589294 890.547180,868.231873 885.402893,875.081665 
	C883.472595,877.652100 880.718750,878.403198 878.269287,876.563965 
	C874.465210,873.707520 870.585327,870.671265 867.654541,866.982666 
	C856.833069,853.363525 847.726013,838.570190 841.202942,822.451721 
	C832.374512,800.636902 824.235962,778.541687 815.919006,756.522461 
	C814.686890,753.260315 812.609619,749.306335 813.473022,746.440613 
	C817.017700,734.675537 806.989685,729.752563 798.196350,731.104187 
	C787.170105,732.798950 785.528442,735.710083 787.738770,745.447144 
	C793.371826,770.262634 802.765198,793.776733 812.492065,817.993713 
z"/>
<path fill="#92FFAC" opacity="1.000000" stroke="none" 
	d="
M870.000122,1077.002197 
	C863.884460,1066.868408 857.822998,1057.102173 851.750427,1047.342896 
	C850.743835,1045.725220 849.688782,1044.137451 847.829956,1042.683228 
	C848.641296,1048.651001 849.367554,1054.631836 850.283142,1060.583618 
	C851.790894,1070.384766 853.378601,1080.174316 855.010376,1089.955811 
	C857.202271,1103.094849 859.523438,1116.212524 861.685059,1129.356567 
	C863.532837,1140.591553 865.199768,1151.856079 867.008789,1163.097656 
	C869.229675,1176.899170 871.552551,1190.684204 873.760803,1204.487671 
	C875.559998,1215.734009 877.247742,1226.997925 878.999512,1238.251831 
	C881.026184,1251.271729 882.829224,1264.332397 885.179199,1277.293823 
	C887.112183,1287.955322 889.592346,1298.523315 892.064209,1309.077881 
	C892.866211,1312.502686 894.145691,1315.880615 895.673340,1319.055542 
	C898.101868,1324.103149 895.384460,1337.682251 890.814514,1340.566650 
	C887.285400,1342.794189 883.554810,1341.551392 881.385071,1338.667847 
	C877.522705,1333.534546 872.959351,1328.242676 871.281433,1322.286743 
	C867.079407,1307.371460 864.025757,1292.106079 861.075134,1276.871948 
	C857.739868,1259.651367 854.888916,1242.332886 852.073975,1225.016846 
	C849.853821,1211.359985 848.152954,1197.618896 845.959106,1183.957397 
	C843.125549,1166.312256 839.941223,1148.723755 837.077209,1131.083252 
	C834.912537,1117.750244 833.111511,1104.358276 830.968567,1091.021484 
	C828.777954,1077.388306 826.146667,1063.822998 824.129089,1050.166016 
	C822.719360,1040.623413 821.802917,1030.992188 821.080139,1021.369568 
	C820.644226,1015.566711 820.692505,1009.682556 821.104004,1003.876038 
	C821.405396,999.623657 824.297974,997.427368 828.650696,996.928772 
	C831.012756,996.658142 833.258118,995.276794 835.615234,995.069885 
	C844.618408,994.279907 850.404053,999.916626 854.655273,1006.482361 
	C868.292480,1027.544556 881.214722,1049.068481 894.727234,1070.213257 
	C908.854675,1092.320435 923.038147,1114.404907 937.812561,1136.079834 
	C944.856750,1146.413940 953.327026,1155.776001 962.321106,1165.302734 
	C961.384705,1159.207642 960.578857,1153.088867 959.486145,1147.021973 
	C956.724976,1131.692017 953.829529,1116.386108 950.998230,1101.068726 
	C948.933472,1089.898804 946.851990,1078.731812 944.838623,1067.552490 
	C942.853027,1056.527222 940.797180,1045.511475 939.040955,1034.448975 
	C937.202271,1022.866821 935.644592,1011.239258 934.048340,999.619995 
	C933.557800,996.049438 933.164246,992.447205 933.036926,988.848511 
	C932.615051,976.926208 931.777100,964.980957 932.157654,953.078369 
	C932.536499,941.225952 934.930908,929.558777 939.255615,918.416199 
	C941.990417,911.370178 948.666931,907.656555 958.391907,908.052185 
	C966.421082,908.378906 970.404541,913.698853 972.921448,920.669617 
	C981.246155,943.725159 989.346558,966.868591 998.126099,989.750610 
	C1003.905212,1004.812439 1010.248901,1019.698120 1017.142395,1034.283325 
	C1031.820435,1065.339233 1046.669434,1096.325684 1062.144653,1126.989136 
	C1070.962158,1144.460571 1081.384155,1161.114990 1090.619873,1178.385498 
	C1094.865112,1186.323853 1098.378662,1194.716919 1101.501099,1203.170898 
	C1103.690186,1209.097290 1101.449707,1214.879150 1097.842285,1219.766235 
	C1097.180298,1220.663086 1093.696777,1220.734131 1092.628296,1219.846802 
	C1088.892944,1216.744263 1084.950806,1213.507568 1082.340698,1209.504639 
	C1074.219482,1197.049683 1066.194824,1184.484009 1059.010620,1171.476562 
	C1046.558838,1148.931763 1034.030884,1126.376709 1022.875854,1103.181030 
	C1007.819275,1071.872314 993.711426,1040.092896 979.821838,1008.242798 
	C971.833374,989.924622 965.081177,971.067383 957.762878,952.456543 
	C957.586365,952.007874 957.296387,951.603699 956.675232,950.489990 
	C956.675232,959.811218 956.519714,968.075073 956.732605,976.329346 
	C956.863525,981.405579 957.328064,986.499756 958.038818,991.529907 
	C960.931091,1011.998474 963.761414,1032.479980 967.027954,1052.890503 
	C970.081421,1071.969360 973.575317,1090.979248 977.031494,1109.991211 
	C979.496277,1123.549683 982.812561,1136.980957 984.652527,1150.616943 
	C986.322449,1162.992676 989.419739,1175.572998 984.994751,1188.056152 
	C983.650452,1191.848511 981.863342,1195.482178 980.343201,1199.214722 
	C977.353882,1206.554688 968.741272,1206.763306 964.801453,1203.079346 
	C955.237976,1194.136719 945.357361,1185.347900 937.029114,1175.314575 
	C925.620850,1161.570679 915.099670,1147.027954 904.996033,1132.281006 
	C894.664062,1117.200806 885.294922,1101.460815 875.505798,1086.008789 
	C873.683594,1083.132324 871.868774,1080.251221 870.000122,1077.002197 
z"/>
<path fill="#92FFAC" opacity="1.000000" stroke="none" 
	d="
M497.274811,1084.691895 
	C485.927155,1063.724976 474.802399,1043.064819 463.324493,1021.748657 
	C457.337128,1028.215332 451.615753,1034.781372 445.478638,1040.932617 
	C436.221039,1050.211670 426.647583,1059.174805 417.258789,1068.323975 
	C412.128632,1073.323242 407.594055,1079.103027 401.875702,1083.276855 
	C397.160553,1086.718384 396.875214,1090.615112 396.945007,1095.491699 
	C397.114227,1107.321289 397.130005,1119.156616 396.964294,1130.986206 
	C396.790222,1143.412842 396.473511,1155.841553 395.957977,1168.258423 
	C395.486359,1179.616821 395.073792,1191.004395 393.866791,1202.296997 
	C392.943359,1210.936157 393.688660,1219.995483 389.048523,1227.984619 
	C388.087250,1229.639893 387.231750,1231.363892 386.432251,1233.104370 
	C384.395477,1237.538574 381.714386,1236.698364 378.684540,1234.194702 
	C369.505249,1226.609741 368.049347,1216.436890 369.043457,1205.468018 
	C369.619843,1199.108154 370.610474,1192.775269 370.938354,1186.405884 
	C371.491455,1175.659424 371.695984,1164.894287 371.992340,1154.135498 
	C372.357544,1140.877563 372.670685,1127.618286 372.994629,1114.359253 
	C373.033661,1112.762695 373.000000,1111.164307 373.000000,1109.732300 
	C362.382080,1117.567871 352.028748,1125.359131 341.507996,1132.917114 
	C334.877075,1137.680908 332.042664,1136.937500 328.002533,1129.970093 
	C326.626251,1127.596558 325.036896,1125.284302 324.079620,1122.742554 
	C321.680511,1116.372681 323.478180,1112.165527 328.995728,1107.948364 
	C342.074554,1097.952148 354.948761,1087.688599 367.939819,1077.576904 
	C371.047424,1075.158081 372.274933,1072.287964 372.109680,1068.201172 
	C371.753082,1059.383301 372.223053,1050.534180 371.951569,1041.710205 
	C371.453552,1025.522217 370.740906,1009.339478 369.969299,993.161621 
	C369.443542,982.138000 368.691040,971.124817 367.993744,960.109863 
	C367.016205,944.667114 366.026855,929.225037 364.981598,913.786682 
	C364.382202,904.933838 363.528107,896.096741 363.027496,887.239014 
	C362.245178,873.396301 361.268616,859.545654 361.147522,845.691589 
	C361.073822,837.259033 362.986664,828.948181 367.781708,821.680542 
	C368.616486,820.415405 369.775513,819.009705 371.107056,818.481445 
	C384.938049,812.994263 395.869720,812.561401 404.885345,830.395264 
	C413.261444,846.964050 420.513519,864.114075 427.923035,881.154846 
	C434.870819,897.133728 441.231140,913.367310 448.119171,929.372925 
	C454.565247,944.351562 461.360779,959.179932 468.021881,974.065735 
	C468.282379,974.647827 468.743530,975.140015 467.379852,973.805298 
	C475.248047,967.041687 483.691833,960.823120 490.788300,953.328796 
	C495.778595,948.058716 501.545166,945.237122 508.074371,944.332214 
	C511.244690,943.892761 516.557556,945.646606 517.818604,948.034790 
	C519.416626,951.061340 518.593750,955.943298 517.548523,959.669922 
	C515.280884,967.755066 509.268890,973.370178 503.478973,979.172546 
	C496.500916,986.165527 489.993988,993.641663 483.540161,1001.130188 
	C482.627014,1002.189880 482.452393,1004.880188 483.139984,1006.177612 
	C495.580994,1029.652100 507.892578,1053.205444 520.915588,1076.357422 
	C528.286133,1089.460571 536.546753,1102.104736 545.042297,1114.520630 
	C552.360718,1125.216309 560.889343,1134.915405 571.715515,1142.480347 
	C576.092957,1145.539062 578.619629,1144.198853 581.565063,1140.976074 
	C589.040161,1132.797241 592.292419,1122.678955 594.999512,1112.284424 
	C597.317444,1103.384155 599.559814,1094.462158 602.049622,1085.609863 
	C602.994690,1082.249756 604.103149,1079.195679 608.729187,1078.493530 
	C614.594177,1077.603271 617.784607,1079.060059 617.925476,1085.054810 
	C618.424377,1106.288208 616.405701,1127.047485 607.190308,1146.719116 
	C603.249573,1155.131104 599.102051,1162.935425 591.257996,1168.350586 
	C582.350647,1174.499756 573.359619,1174.027344 564.419495,1168.848511 
	C550.988892,1161.068359 540.753174,1149.874756 531.179749,1137.825317 
	C518.097229,1121.359619 507.837982,1103.171021 497.274811,1084.691895 
M436.522461,963.018127 
	C430.663330,949.544556 424.729034,936.103027 418.966156,922.588440 
	C413.209839,909.089355 407.701538,895.484375 401.942474,881.986511 
	C396.723083,869.753662 391.312378,857.602478 386.033722,845.524475 
	C386.033722,858.048645 385.950958,870.392822 386.079010,882.734802 
	C386.123199,886.995239 386.671783,891.251953 387.025055,895.507385 
	C388.342133,911.371277 389.734589,927.229309 390.977875,943.098938 
	C391.761719,953.104004 392.522736,963.117676 392.954590,973.142090 
	C393.766174,991.981018 394.271698,1010.833008 395.031342,1029.674438 
	C395.312744,1036.653198 395.950958,1043.617676 396.248169,1047.974976 
	C414.032166,1031.315063 432.924072,1013.617310 451.351044,996.355103 
	C446.185883,984.631104 441.568909,974.151306 436.522461,963.018127 
z"/>
<path fill="#92FFAC" opacity="1.000000" stroke="none" 
	d="
M686.730225,998.640015 
	C679.155396,1019.473999 670.447144,1039.165649 654.111877,1054.414307 
	C649.803345,1058.436157 645.048523,1061.303955 638.904602,1061.069336 
	C637.218628,1066.876465 635.951233,1072.853882 633.674622,1078.418457 
	C632.494751,1081.302368 629.497864,1085.473755 627.375916,1085.442017 
	C624.545776,1085.399902 621.229309,1082.284180 619.070312,1079.697021 
	C612.857849,1072.252808 609.407349,1062.902832 609.415710,1053.737671 
	C609.428345,1039.895264 603.078003,1028.294189 599.237854,1015.858093 
	C590.337341,987.033875 580.481934,958.505981 571.398132,929.736572 
	C562.801331,902.509460 554.625977,875.148254 546.408569,847.802917 
	C543.390381,837.758911 540.821289,827.580566 537.939636,817.494263 
	C537.577393,816.226501 536.837158,814.641907 535.794434,814.060486 
	C527.364075,809.359802 526.086182,800.782410 524.048340,792.680603 
	C522.641052,787.085449 522.210876,781.414062 524.963562,775.980164 
	C525.392700,775.132935 525.574341,773.648987 526.167419,773.475769 
	C531.682251,771.864563 537.335571,769.159485 542.798462,769.464355 
	C546.740295,769.684326 550.700256,773.097656 552.175171,778.595398 
	C558.443542,801.960449 565.184082,825.202759 572.039612,848.405029 
	C578.163208,869.130005 584.659729,889.744873 591.010681,910.402466 
	C591.332458,911.449097 591.833496,912.440674 592.465881,913.981262 
	C595.079956,901.526428 598.978210,890.190552 606.296997,880.383362 
	C611.216248,873.791565 618.435730,870.822144 626.218567,869.024170 
	C643.273560,865.084106 656.851013,871.133667 668.758606,883.136719 
	C681.767700,896.250122 688.446655,912.524902 691.715576,930.049805 
	C694.785217,946.506287 694.873962,963.279724 691.062744,979.828003 
	C689.647400,985.973145 688.315491,992.137573 686.730225,998.640015 
M613.000610,947.327271 
	C613.333252,949.083435 613.768982,950.827271 613.979736,952.597961 
	C614.692932,958.590515 615.317261,964.593567 615.993042,970.590637 
	C616.649719,976.417664 617.351562,982.239807 617.985962,988.069214 
	C618.284790,990.814941 618.244385,993.615662 618.751770,996.317444 
	C620.458984,1005.408020 625.164001,1013.004639 630.662903,1020.282227 
	C633.446106,1023.965759 635.503723,1028.197388 637.972290,1032.319702 
	C647.007812,1024.373291 652.963928,1014.996277 657.904907,1005.076843 
	C669.050720,982.700500 672.037476,958.934570 667.867615,934.423767 
	C665.684631,921.592102 660.797119,909.788086 650.477478,900.966736 
	C645.674255,896.860901 639.869446,894.245361 633.951965,895.291748 
	C625.990662,896.699524 619.978271,902.498413 618.274658,910.213562 
	C615.653625,922.083557 614.675293,934.316223 613.000610,947.327271 
z"/>
<path fill="#92FFAC" opacity="1.000000" stroke="none" 
	d="
M973.969604,796.051758 
	C969.303345,782.407593 964.606445,769.185181 960.043396,755.916748 
	C953.591797,737.156494 947.245850,718.359802 940.823181,699.589600 
	C940.519592,698.702393 939.910522,697.919800 939.067139,696.417908 
	C935.575317,700.794250 932.301025,704.930603 928.989563,709.037109 
	C926.731995,711.836731 924.555176,714.718689 922.103210,717.340210 
	C918.919861,720.743652 915.649536,720.221069 913.057434,716.355408 
	C909.378845,710.869446 908.702332,704.803467 911.521301,699.172913 
	C916.279968,689.667908 921.976990,680.636230 927.077942,671.295471 
	C927.919006,669.755371 928.466797,667.386719 927.908508,665.852966 
	C921.622681,648.583191 915.120056,631.391968 908.621582,614.200012 
	C903.890137,601.682922 898.912170,589.255981 894.380493,576.667725 
	C892.475342,571.375549 891.063599,565.835754 890.105042,560.291321 
	C889.028381,554.064087 898.408020,548.900696 905.228394,551.713013 
	C912.318970,554.636658 914.519470,561.346191 916.926025,567.571350 
	C927.273193,594.336487 937.343994,621.208435 947.532349,648.034973 
	C947.797791,648.733704 948.256836,649.358887 948.402771,649.619995 
	C963.294617,638.576477 977.947510,627.498047 992.825623,616.730713 
	C1011.334900,603.335449 1029.830933,589.872375 1050.667358,580.158447 
	C1052.954590,579.092102 1055.557617,578.308044 1058.054565,578.179565 
	C1061.764648,577.988525 1064.231812,583.139587 1062.642700,586.877136 
	C1059.438477,594.413452 1053.409180,599.635620 1047.484863,604.735291 
	C1037.469238,613.356567 1027.004761,621.456299 1016.725464,629.771179 
	C1002.890320,640.962341 989.023560,652.114563 975.230408,663.357239 
	C970.401917,667.292908 965.598083,671.288574 961.128662,675.614075 
	C960.039856,676.667908 959.555054,679.393494 960.075623,680.909851 
	C973.637878,720.407776 987.273254,759.881653 1001.181702,799.258667 
	C1003.145630,804.818848 1006.584656,809.857971 1010.123596,816.637695 
	C1017.532654,807.951599 1024.550781,800.303772 1030.899658,792.135620 
	C1039.068481,781.625977 1046.422119,770.479004 1054.677612,760.042175 
	C1058.977783,754.605835 1063.548096,754.312866 1069.857056,757.347229 
	C1070.936523,765.487732 1066.839966,772.365295 1064.051270,779.555359 
	C1057.985352,795.194763 1049.717041,809.736572 1039.751465,823.083313 
	C1034.255493,830.443848 1027.130615,836.932251 1019.696411,842.392700 
	C1013.727478,846.776855 1006.068970,847.370728 998.086182,839.414795 
	C993.965576,835.308105 990.071228,830.623108 987.376831,825.512878 
	C982.410583,816.093506 978.404846,806.167664 973.969604,796.051758 
z"/>
<path fill="#92FFAC" opacity="1.000000" stroke="none" 
	d="
M1174.771729,1131.729004 
	C1167.672363,1142.577881 1159.507446,1152.282593 1148.622681,1158.449951 
	C1138.083252,1164.421509 1128.393433,1164.356445 1116.754028,1154.448242 
	C1109.254272,1148.064087 1104.272339,1140.046265 1099.397095,1131.829712 
	C1087.282715,1111.412842 1080.811157,1088.915161 1076.199463,1065.914062 
	C1073.896240,1054.426147 1072.920044,1042.616211 1072.115479,1030.899048 
	C1071.265259,1018.516968 1070.664673,1006.044128 1071.178589,993.661743 
	C1071.750122,979.892944 1074.030518,966.326172 1079.800293,953.474731 
	C1084.299194,943.454102 1091.657593,938.081665 1102.107300,935.223938 
	C1113.342041,932.151733 1123.019165,934.567627 1129.980591,943.013123 
	C1134.150391,948.071960 1136.628662,955.312561 1137.765259,961.933411 
	C1140.948608,980.476807 1137.858643,998.689331 1131.938843,1016.351746 
	C1126.376953,1032.945801 1119.221924,1048.842529 1108.980591,1063.183472 
	C1108.887085,1063.314331 1108.878662,1063.536133 1108.762329,1063.616089 
	C1101.497070,1068.606689 1102.427490,1074.957031 1104.895996,1082.258789 
	C1110.880981,1099.962646 1116.598267,1117.665649 1129.986572,1131.629517 
	C1133.154175,1134.933472 1135.878906,1134.865723 1139.086792,1132.387939 
	C1146.689575,1126.515747 1154.042725,1120.293091 1161.902832,1114.792236 
	C1166.033813,1111.901367 1170.880249,1109.814819 1175.686890,1108.217529 
	C1177.549438,1107.598633 1180.911377,1108.695801 1182.250366,1110.202271 
	C1183.279297,1111.359985 1182.746216,1114.598633 1181.969238,1116.535156 
	C1179.928955,1121.619507 1177.375610,1126.497925 1174.771729,1131.729004 
M1102.062622,1025.525146 
	C1105.255127,1016.942993 1109.051270,1008.528198 1111.489380,999.736816 
	C1114.632935,988.401917 1116.301880,976.720764 1113.887085,964.928589 
	C1113.654785,963.794006 1112.012451,962.317627 1110.835815,962.119141 
	C1106.372314,961.366150 1100.387207,965.779785 1099.120972,971.394470 
	C1097.344971,979.270447 1095.572754,987.281494 1095.173828,995.303162 
	C1094.528076,1008.288208 1095.000000,1021.328918 1095.000000,1034.346069 
	C1095.505005,1034.415039 1096.010010,1034.484009 1096.515137,1034.553101 
	C1098.329590,1031.795898 1100.144043,1029.038696 1102.062622,1025.525146 
z"/>
<path fill="#92FFAC" opacity="1.000000" stroke="none" 
	d="
M693.000000,855.968750 
	C692.666748,847.904236 691.523315,840.237732 692.211182,832.739319 
	C693.017822,823.945923 693.707703,814.427124 697.584534,806.821655 
	C701.853516,798.446777 709.491455,792.010437 719.444702,788.889771 
	C743.201233,781.441284 759.762756,794.846985 771.830933,811.867126 
	C785.323364,830.895996 792.566833,852.595276 796.074524,875.635803 
	C799.349182,897.146179 799.148804,918.191956 791.160095,938.888611 
	C786.376953,951.280457 780.682190,962.953369 770.088013,971.249146 
	C760.593140,978.684143 749.606567,978.946838 737.187927,969.777710 
	C723.736389,959.845886 716.449707,945.487915 710.335327,930.893372 
	C704.638977,917.296448 700.837524,902.791504 697.402283,888.399719 
	C694.917480,877.989685 694.396667,867.110901 693.000000,855.968750 
M757.347839,946.110352 
	C768.820068,935.454773 773.127686,921.564331 773.796631,906.638367 
	C774.220520,897.180542 773.156982,887.569397 771.899048,878.141907 
	C769.654541,861.320618 764.267883,845.440247 754.951477,831.152405 
	C749.920654,823.437134 744.083191,816.475830 734.170593,814.524414 
	C728.780090,813.463196 721.148315,817.547607 720.036804,822.950195 
	C718.069885,832.511353 717.258118,842.036499 717.680725,851.962280 
	C718.262451,865.623596 719.736023,878.998108 723.014221,892.213257 
	C727.514160,910.353394 733.275391,927.933655 745.297363,942.790222 
	C748.772217,947.084351 752.940063,948.702393 757.347839,946.110352 
z"/>
<path fill="#92FFAC" opacity="1.000000" stroke="none" 
	d="
M812.270752,817.667297 
	C802.765198,793.776733 793.371826,770.262634 787.738770,745.447144 
	C785.528442,735.710083 787.170105,732.798950 798.196350,731.104187 
	C806.989685,729.752563 817.017700,734.675537 813.473022,746.440613 
	C812.609619,749.306335 814.686890,753.260315 815.919006,756.522461 
	C824.235962,778.541687 832.374512,800.636902 841.202942,822.451721 
	C847.726013,838.570190 856.833069,853.363525 867.654541,866.982666 
	C870.585327,870.671265 874.465210,873.707520 878.269287,876.563965 
	C880.718750,878.403198 883.472595,877.652100 885.402893,875.081665 
	C890.547180,868.231873 894.195374,860.589294 894.874390,852.074951 
	C895.714966,841.535400 896.949341,830.768066 895.684448,820.382751 
	C893.950745,806.147522 890.425964,792.078003 886.894165,778.133667 
	C884.768250,769.740417 881.243103,761.692444 878.168152,753.556885 
	C877.612061,752.085693 876.329956,750.793274 875.143433,749.671753 
	C867.603210,742.544495 864.004944,733.411316 862.168701,723.536377 
	C861.868896,721.923950 863.294922,719.197998 864.755005,718.181702 
	C873.161377,712.330505 883.884338,714.625122 889.737000,723.242798 
	C900.038574,738.411011 905.951599,755.521606 910.867737,772.926514 
	C914.203918,784.737793 917.499207,796.787109 918.638306,808.933899 
	C919.986938,823.314819 919.691833,837.956299 918.832092,852.408875 
	C917.911865,867.877441 911.643005,881.730286 903.126709,894.679199 
	C896.487671,904.773804 881.117493,909.483948 868.881775,901.648376 
	C854.196777,892.244263 843.984436,879.155823 835.886902,864.304321 
	C827.612000,849.127319 820.252380,833.451294 812.270752,817.667297 
z"/>
<path fill="#000000" opacity="1.000000" stroke="none" 
	d="
M436.737183,963.344849 
	C441.568909,974.151306 446.185883,984.631104 451.351044,996.355103 
	C432.924072,1013.617310 414.032166,1031.315063 396.248169,1047.974976 
	C395.950958,1043.617676 395.312744,1036.653198 395.031342,1029.674438 
	C394.271698,1010.833008 393.766174,991.981018 392.954590,973.142090 
	C392.522736,963.117676 391.761719,953.104004 390.977875,943.098938 
	C389.734589,927.229309 388.342133,911.371277 387.025055,895.507385 
	C386.671783,891.251953 386.123199,886.995239 386.079010,882.734802 
	C385.950958,870.392822 386.033722,858.048645 386.033722,845.524475 
	C391.312378,857.602478 396.723083,869.753662 401.942474,881.986511 
	C407.701538,895.484375 413.209839,909.089355 418.966156,922.588440 
	C424.729034,936.103027 430.663330,949.544556 436.737183,963.344849 
z"/>
<path fill="#000000" opacity="1.000000" stroke="none" 
	d="
M613.000305,946.861145 
	C614.675293,934.316223 615.653625,922.083557 618.274658,910.213562 
	C619.978271,902.498413 625.990662,896.699524 633.951965,895.291748 
	C639.869446,894.245361 645.674255,896.860901 650.477478,900.966736 
	C660.797119,909.788086 665.684631,921.592102 667.867615,934.423767 
	C672.037476,958.934570 669.050720,982.700500 657.904907,1005.076843 
	C652.963928,1014.996277 647.007812,1024.373291 637.972290,1032.319702 
	C635.503723,1028.197388 633.446106,1023.965759 630.662903,1020.282227 
	C625.164001,1013.004639 620.458984,1005.408020 618.751770,996.317444 
	C618.244385,993.615662 618.284790,990.814941 617.985962,988.069214 
	C617.351562,982.239807 616.649719,976.417664 615.993042,970.590637 
	C615.317261,964.593567 614.692932,958.590515 613.979736,952.597961 
	C613.768982,950.827271 613.333252,949.083435 613.000305,946.861145 
z"/>
<path fill="#000000" opacity="1.000000" stroke="none" 
	d="
M1102.010620,1025.903320 
	C1100.144043,1029.038696 1098.329590,1031.795898 1096.515137,1034.553101 
	C1096.010010,1034.484009 1095.505005,1034.415039 1095.000000,1034.346069 
	C1095.000000,1021.328918 1094.528076,1008.288208 1095.173828,995.303162 
	C1095.572754,987.281494 1097.344971,979.270447 1099.120972,971.394470 
	C1100.387207,965.779785 1106.372314,961.366150 1110.835815,962.119141 
	C1112.012451,962.317627 1113.654785,963.794006 1113.887085,964.928589 
	C1116.301880,976.720764 1114.632935,988.401917 1111.489380,999.736816 
	C1109.051270,1008.528198 1105.255127,1016.942993 1102.010620,1025.903320 
z"/>
<path fill="#000000" opacity="1.000000" stroke="none" 
	d="
M757.102173,946.400635 
	C752.940063,948.702393 748.772217,947.084351 745.297363,942.790222 
	C733.275391,927.933655 727.514160,910.353394 723.014221,892.213257 
	C719.736023,878.998108 718.262451,865.623596 717.680725,851.962280 
	C717.258118,842.036499 718.069885,832.511353 720.036804,822.950195 
	C721.148315,817.547607 728.780090,813.463196 734.170593,814.524414 
	C744.083191,816.475830 749.920654,823.437134 754.951477,831.152405 
	C764.267883,845.440247 769.654541,861.320618 771.899048,878.141907 
	C773.156982,887.569397 774.220520,897.180542 773.796631,906.638367 
	C773.127686,921.564331 768.820068,935.454773 757.102173,946.400635 
z"/>
</svg>